<svg width="140" height="62" viewBox="0 0 140 62" fill="none" xmlns="http://www.w3.org/2000/svg">
<path d="M15.86 31.56L12.18 40H5.84L0.02 23.58H7.52L10.02 32.46L13.66 23.9H18.1L21.68 32.46L24.2 23.58H31.7L25.92 40H19.6L15.86 31.56ZM36.6344 33.22C36.6877 33.66 36.861 34.0467 37.1544 34.38C37.461 34.7 37.861 34.9533 38.3544 35.14C38.861 35.3133 39.4544 35.4 40.1344 35.4C40.801 35.4 41.4277 35.3533 42.0144 35.26C42.601 35.1533 43.121 35.0133 43.5744 34.84C44.041 34.6667 44.4077 34.4733 44.6744 34.26L47.2944 38.66C47.001 38.9133 46.561 39.18 45.9744 39.46C45.3877 39.74 44.581 39.98 43.5544 40.18C42.541 40.38 41.241 40.48 39.6544 40.48C37.8144 40.48 36.161 40.1533 34.6944 39.5C33.2277 38.8467 32.0677 37.8667 31.2144 36.56C30.361 35.24 29.9344 33.5933 29.9344 31.62C29.9344 30.02 30.2944 28.58 31.0144 27.3C31.7344 26.0067 32.7744 24.9867 34.1344 24.24C35.4944 23.48 37.141 23.1 39.0744 23.1C40.9277 23.1 42.5344 23.4267 43.8944 24.08C45.2544 24.72 46.301 25.6933 47.0344 27C47.7677 28.3067 48.1344 29.96 48.1344 31.96C48.1344 32.0667 48.1277 32.28 48.1144 32.6C48.1144 32.92 48.101 33.1267 48.0744 33.22H36.6344ZM41.4744 30.02C41.461 29.58 41.361 29.1867 41.1744 28.84C41.001 28.4933 40.7477 28.22 40.4144 28.02C40.081 27.82 39.6744 27.72 39.1944 27.72C38.7277 27.72 38.3144 27.8133 37.9544 28C37.5944 28.1867 37.3144 28.4533 37.1144 28.8C36.9144 29.1333 36.801 29.54 36.7744 30.02H41.4744ZM56.8678 23.1C58.0145 23.1 59.0611 23.1933 60.0078 23.38C60.9678 23.5667 61.7611 23.7733 62.3878 24C63.0278 24.2133 63.4278 24.38 63.5878 24.5L61.3678 28.62C61.1278 28.4467 60.6611 28.22 59.9678 27.94C59.2878 27.6467 58.5345 27.5 57.7078 27.5C57.1611 27.5 56.7078 27.5667 56.3478 27.7C56.0011 27.82 55.8278 28.0333 55.8278 28.34C55.8278 28.6333 56.0345 28.88 56.4478 29.08C56.8611 29.2667 57.4878 29.4333 58.3278 29.58C59.0878 29.7267 59.8878 29.9733 60.7278 30.32C61.5678 30.6533 62.2745 31.1667 62.8478 31.86C63.4345 32.54 63.7278 33.4533 63.7278 34.6C63.7278 35.8267 63.4611 36.8267 62.9278 37.6C62.3945 38.36 61.6945 38.9533 60.8278 39.38C59.9745 39.7933 59.0478 40.08 58.0478 40.24C57.0611 40.4 56.1145 40.48 55.2078 40.48C53.8745 40.48 52.7211 40.36 51.7478 40.12C50.7745 39.8933 49.9945 39.6333 49.4078 39.34C48.8345 39.0467 48.4411 38.82 48.2278 38.66L50.4078 34.08C50.7545 34.36 51.3145 34.68 52.0878 35.04C52.8745 35.4 53.6878 35.58 54.5278 35.58C55.2745 35.58 55.8345 35.5 56.2078 35.34C56.5945 35.1667 56.7878 34.9333 56.7878 34.64C56.7878 34.4133 56.6945 34.2267 56.5078 34.08C56.3211 33.9333 56.0478 33.8 55.6878 33.68C55.3278 33.56 54.8745 33.4467 54.3278 33.34C53.8345 33.2467 53.2878 33.0933 52.6878 32.88C52.0878 32.6533 51.5145 32.34 50.9678 31.94C50.4345 31.54 49.9878 31.0333 49.6278 30.42C49.2811 29.7933 49.1078 29.0333 49.1078 28.14C49.1078 26.9933 49.4811 26.0533 50.2278 25.32C50.9745 24.5733 51.9345 24.02 53.1078 23.66C54.2945 23.2867 55.5478 23.1 56.8678 23.1ZM76.905 23.1C78.0917 23.1 79.2383 23.3333 80.345 23.8C81.465 24.2667 82.385 25.0133 83.105 26.04C83.8383 27.0667 84.205 28.4067 84.205 30.06V40H77.125V31.2C77.125 30.2 76.905 29.4333 76.465 28.9C76.0383 28.3533 75.425 28.08 74.625 28.08C74.105 28.08 73.605 28.2133 73.125 28.48C72.645 28.7467 72.2583 29.12 71.965 29.6C71.6717 30.08 71.525 30.64 71.525 31.28V40H64.445V12.48H71.525V25.8C71.685 25.36 72.0183 24.94 72.525 24.54C73.045 24.1267 73.685 23.7867 74.445 23.52C75.205 23.24 76.025 23.1 76.905 23.1ZM97.9394 40V37.54C97.806 37.7933 97.506 38.16 97.0394 38.64C96.5727 39.1067 95.9527 39.5333 95.1794 39.92C94.4194 40.2933 93.526 40.48 92.4994 40.48C90.8727 40.48 89.466 40.08 88.2794 39.28C87.0927 38.48 86.1727 37.42 85.5194 36.1C84.8794 34.78 84.5594 33.3467 84.5594 31.8C84.5594 30.2533 84.8794 28.82 85.5194 27.5C86.1727 26.18 87.0927 25.12 88.2794 24.32C89.466 23.5067 90.8727 23.1 92.4994 23.1C93.4727 23.1 94.3194 23.2467 95.0394 23.54C95.7727 23.8333 96.3727 24.18 96.8394 24.58C97.3194 24.98 97.6594 25.36 97.8594 25.72V23.58H104.899V40H97.9394ZM91.4994 31.8C91.4994 32.3867 91.6394 32.9267 91.9194 33.42C92.1994 33.9 92.5794 34.28 93.0594 34.56C93.5394 34.84 94.086 34.98 94.6994 34.98C95.3127 34.98 95.8527 34.84 96.3194 34.56C96.7994 34.28 97.1727 33.9 97.4394 33.42C97.7194 32.9267 97.8594 32.3867 97.8594 31.8C97.8594 31.2133 97.7194 30.68 97.4394 30.2C97.1727 29.7067 96.7994 29.32 96.3194 29.04C95.8527 28.7467 95.3127 28.6 94.6994 28.6C94.086 28.6 93.5394 28.7467 93.0594 29.04C92.5794 29.32 92.1994 29.7067 91.9194 30.2C91.6394 30.68 91.4994 31.2133 91.4994 31.8ZM112.845 40H105.765V23.58H112.845V26H112.745C112.879 25.7067 113.145 25.3333 113.545 24.88C113.959 24.4267 114.532 24.02 115.265 23.66C116.012 23.2867 116.939 23.1 118.045 23.1C118.792 23.1 119.499 23.22 120.165 23.46C120.832 23.7 121.319 23.9333 121.625 24.16L118.905 29.9C118.732 29.6467 118.405 29.3933 117.925 29.14C117.445 28.8733 116.852 28.74 116.145 28.74C115.345 28.74 114.699 28.92 114.205 29.28C113.725 29.6267 113.379 30.06 113.165 30.58C112.952 31.1 112.845 31.6 112.845 32.08V40ZM126.439 33.22C126.492 33.66 126.666 34.0467 126.959 34.38C127.266 34.7 127.666 34.9533 128.159 35.14C128.666 35.3133 129.259 35.4 129.939 35.4C130.606 35.4 131.232 35.3533 131.819 35.26C132.406 35.1533 132.926 35.0133 133.379 34.84C133.846 34.6667 134.212 34.4733 134.479 34.26L137.099 38.66C136.806 38.9133 136.366 39.18 135.779 39.46C135.192 39.74 134.386 39.98 133.359 40.18C132.346 40.38 131.046 40.48 129.459 40.48C127.619 40.48 125.966 40.1533 124.499 39.5C123.032 38.8467 121.872 37.8667 121.019 36.56C120.166 35.24 119.739 33.5933 119.739 31.62C119.739 30.02 120.099 28.58 120.819 27.3C121.539 26.0067 122.579 24.9867 123.939 24.24C125.299 23.48 126.946 23.1 128.879 23.1C130.732 23.1 132.339 23.4267 133.699 24.08C135.059 24.72 136.106 25.6933 136.839 27C137.572 28.3067 137.939 29.96 137.939 31.96C137.939 32.0667 137.932 32.28 137.919 32.6C137.919 32.92 137.906 33.1267 137.879 33.22H126.439ZM131.279 30.02C131.266 29.58 131.166 29.1867 130.979 28.84C130.806 28.4933 130.552 28.22 130.219 28.02C129.886 27.82 129.479 27.72 128.999 27.72C128.532 27.72 128.119 27.8133 127.759 28C127.399 28.1867 127.119 28.4533 126.919 28.8C126.719 29.1333 126.606 29.54 126.579 30.02H131.279Z" fill="#343A40"/>
<path d="M33.9149 54.103C33.3793 54.1099 32.9192 54.0206 32.5347 53.8352C32.1502 53.6498 31.7794 53.3786 31.4223 53.0215C31.4086 53.0078 31.3948 52.9906 31.3811 52.97C31.3674 52.9425 31.3605 52.9082 31.3605 52.867C31.3605 52.8121 31.3845 52.7606 31.4326 52.7125C31.4807 52.6576 31.5322 52.6301 31.5871 52.6301C31.6489 52.6301 31.7073 52.661 31.7622 52.7228C32.0369 53.0387 32.3562 53.279 32.7201 53.4438C33.0909 53.6086 33.4754 53.691 33.8737 53.691C34.2239 53.691 34.5363 53.6361 34.811 53.5262C35.0857 53.4095 35.302 53.2481 35.4599 53.0421C35.6178 52.8292 35.6968 52.582 35.6968 52.3005C35.6899 51.9503 35.5938 51.6688 35.4084 51.4559C35.223 51.243 34.9827 51.0679 34.6874 50.9306C34.399 50.7933 34.0934 50.6662 33.7707 50.5495C33.5166 50.4534 33.266 50.3538 33.0188 50.2508C32.7716 50.1478 32.5484 50.0242 32.3493 49.88C32.1502 49.7289 31.9922 49.5435 31.8755 49.3238C31.7588 49.0972 31.7004 48.8191 31.7004 48.4895C31.7004 48.153 31.7897 47.8509 31.9682 47.5831C32.1536 47.3084 32.4145 47.0921 32.751 46.9342C33.0943 46.7694 33.4995 46.687 33.9664 46.687C34.3578 46.687 34.7389 46.7591 35.1097 46.9033C35.4805 47.0406 35.7723 47.2501 35.9852 47.5316C36.0539 47.6277 36.0882 47.6998 36.0882 47.7479C36.0882 47.796 36.0607 47.844 36.0058 47.8921C35.9577 47.9402 35.9028 47.9642 35.841 47.9642C35.7861 47.9642 35.7414 47.9436 35.7071 47.9024C35.5835 47.7376 35.4324 47.5968 35.2539 47.4801C35.0822 47.3565 34.8865 47.2638 34.6668 47.202C34.4471 47.1333 34.2136 47.099 33.9664 47.099C33.6299 47.099 33.3244 47.1539 33.0497 47.2638C32.775 47.3737 32.5553 47.5316 32.3905 47.7376C32.2257 47.9367 32.1433 48.1839 32.1433 48.4792C32.1433 48.7951 32.2326 49.056 32.4111 49.262C32.5965 49.4611 32.83 49.6294 33.1115 49.7667C33.393 49.8972 33.6814 50.0173 33.9767 50.1272C34.2376 50.2165 34.4951 50.316 34.7492 50.4259C35.0101 50.5289 35.2436 50.6594 35.4496 50.8173C35.6625 50.9752 35.8307 51.1744 35.9543 51.4147C36.0779 51.655 36.1397 51.9572 36.1397 52.3211C36.1397 52.637 36.047 52.9288 35.8616 53.1966C35.6831 53.4644 35.429 53.6807 35.0994 53.8455C34.7698 54.0103 34.375 54.0961 33.9149 54.103ZM50.1045 51.4044C50.1045 51.9125 49.9946 52.3726 49.7749 52.7846C49.5552 53.1897 49.253 53.5125 48.8685 53.7528C48.4908 53.9863 48.0582 54.103 47.5707 54.103C47.09 54.103 46.6574 53.9863 46.2729 53.7528C45.8884 53.5125 45.5828 53.1897 45.3562 52.7846C45.1365 52.3726 45.0266 51.9125 45.0266 51.4044C45.0266 50.8894 45.1365 50.4293 45.3562 50.0242C45.5828 49.6122 45.8884 49.2895 46.2729 49.056C46.6574 48.8157 47.09 48.6955 47.5707 48.6955C48.0582 48.6955 48.4908 48.8157 48.8685 49.056C49.253 49.2895 49.5552 49.6122 49.7749 50.0242C49.9946 50.4293 50.1045 50.8894 50.1045 51.4044ZM49.6925 51.4044C49.6925 50.9581 49.5998 50.5632 49.4144 50.2199C49.2359 49.8697 48.9852 49.595 48.6625 49.3959C48.3466 49.1899 47.9827 49.0869 47.5707 49.0869C47.1656 49.0869 46.8016 49.1899 46.4789 49.3959C46.1562 49.595 45.9021 49.8697 45.7167 50.2199C45.5313 50.5632 45.4386 50.9581 45.4386 51.4044C45.4386 51.8439 45.5313 52.2387 45.7167 52.5889C45.9021 52.9322 46.1562 53.2069 46.4789 53.4129C46.8016 53.612 47.1656 53.7116 47.5707 53.7116C47.9827 53.7116 48.3466 53.612 48.6625 53.4129C48.9852 53.2069 49.2359 52.9322 49.4144 52.5889C49.5998 52.2387 49.6925 51.8439 49.6925 51.4044ZM59.7832 53.794C59.7832 53.8489 59.7626 53.897 59.7214 53.9382C59.6802 53.9794 59.6321 54 59.5772 54C59.5154 54 59.4639 53.9794 59.4227 53.9382C59.3884 53.897 59.3712 53.8489 59.3712 53.794V46.584C59.3712 46.5291 59.3918 46.481 59.433 46.4398C59.4742 46.3986 59.5223 46.378 59.5772 46.378C59.639 46.378 59.6871 46.3986 59.7214 46.4398C59.7626 46.481 59.7832 46.5291 59.7832 46.584V53.794ZM68.8619 48.6749C68.8962 48.6749 68.9306 48.6886 68.9649 48.7161C69.0061 48.7367 69.0336 48.7676 69.0473 48.8088L70.9528 53.3717L70.8498 53.4438L72.7862 48.8088C72.8205 48.7195 72.8926 48.6749 73.0025 48.6749C73.0368 48.6749 73.078 48.6886 73.1261 48.7161C73.1742 48.7436 73.1982 48.7848 73.1982 48.8397C73.1982 48.874 73.1948 48.9015 73.1879 48.9221C73.181 48.9358 73.1742 48.9496 73.1673 48.9633L71.1176 53.8661C71.0833 53.9554 71.018 54 70.9219 54C70.8807 54 70.8395 53.9897 70.7983 53.9691C70.764 53.9416 70.7399 53.9073 70.7262 53.8661L68.6662 48.9736C68.6593 48.9599 68.6525 48.9461 68.6456 48.9324C68.6456 48.9118 68.6456 48.8946 68.6456 48.8809C68.6456 48.826 68.6628 48.7779 68.6971 48.7367C68.7314 48.6955 68.7864 48.6749 68.8619 48.6749ZM82.6802 53.794C82.6802 53.8489 82.6596 53.897 82.6184 53.9382C82.5772 53.9794 82.5291 54 82.4742 54C82.4124 54 82.3609 53.9794 82.3197 53.9382C82.2853 53.897 82.2682 53.8489 82.2682 53.794V48.9015C82.2682 48.8466 82.2888 48.7985 82.33 48.7573C82.3712 48.7161 82.4192 48.6955 82.4742 48.6955C82.536 48.6955 82.584 48.7161 82.6184 48.7573C82.6596 48.7985 82.6802 48.8466 82.6802 48.9015V53.794ZM82.4742 47.9951C82.3643 47.9951 82.275 47.9642 82.2064 47.9024C82.1446 47.8406 82.1137 47.7616 82.1137 47.6655V47.5831C82.1137 47.487 82.148 47.408 82.2167 47.3462C82.2853 47.2844 82.3746 47.2535 82.4845 47.2535C82.5806 47.2535 82.6596 47.2844 82.7214 47.3462C82.79 47.408 82.8244 47.487 82.8244 47.5831V47.6655C82.8244 47.7616 82.79 47.8406 82.7214 47.9024C82.6596 47.9642 82.5772 47.9951 82.4742 47.9951ZM93.8253 46.4295C93.9077 46.4295 94.0039 46.4364 94.1137 46.4501C94.2305 46.4638 94.33 46.4913 94.4124 46.5325C94.5017 46.5737 94.5463 46.6355 94.5463 46.7179C94.5463 46.766 94.5257 46.814 94.4845 46.8621C94.4502 46.9033 94.4056 46.9239 94.3506 46.9239C94.282 46.9239 94.1996 46.9033 94.1034 46.8621C94.0073 46.8209 93.9009 46.8003 93.7841 46.8003C93.6468 46.8003 93.5232 46.8312 93.4133 46.893C93.3103 46.9548 93.2279 47.0509 93.1661 47.1814C93.1112 47.305 93.0837 47.4664 93.0837 47.6655V53.794C93.0837 53.8489 93.0631 53.897 93.0219 53.9382C92.9807 53.9794 92.9327 54 92.8777 54C92.8159 54 92.7644 53.9794 92.7232 53.9382C92.6889 53.897 92.6717 53.8489 92.6717 53.794V47.6655C92.6717 47.2398 92.785 46.9273 93.0116 46.7282C93.2382 46.5291 93.5095 46.4295 93.8253 46.4295ZM94.2991 48.9221C94.3541 48.9221 94.3987 48.9427 94.433 48.9839C94.4742 49.0182 94.4948 49.0629 94.4948 49.1178C94.4948 49.1727 94.4742 49.2208 94.433 49.262C94.3987 49.2963 94.3541 49.3135 94.2991 49.3135H91.8477C91.7997 49.3135 91.755 49.2929 91.7138 49.2517C91.6726 49.2105 91.652 49.1659 91.652 49.1178C91.652 49.056 91.6726 49.0079 91.7138 48.9736C91.755 48.9393 91.7997 48.9221 91.8477 48.9221H94.2991ZM107.359 48.6955C107.421 48.6955 107.469 48.7161 107.504 48.7573C107.545 48.7985 107.565 48.8466 107.565 48.9015V53.4953C107.565 54.024 107.459 54.4807 107.246 54.8652C107.033 55.2497 106.745 55.545 106.381 55.751C106.017 55.957 105.602 56.06 105.135 56.06C104.819 56.06 104.534 56.0222 104.28 55.9467C104.032 55.8712 103.83 55.7785 103.672 55.6686C103.624 55.6343 103.586 55.5931 103.559 55.545C103.531 55.4969 103.531 55.4454 103.559 55.3905C103.586 55.3356 103.624 55.2978 103.672 55.2772C103.727 55.2566 103.778 55.2635 103.826 55.2978C103.943 55.3665 104.118 55.4489 104.352 55.545C104.592 55.6411 104.86 55.6892 105.155 55.6892C105.553 55.6892 105.9 55.5965 106.195 55.4111C106.498 55.2257 106.731 54.9682 106.896 54.6386C107.068 54.309 107.153 53.9279 107.153 53.4953V52.7331L107.174 52.9906C107.078 53.1966 106.93 53.3854 106.731 53.5571C106.539 53.7219 106.319 53.8558 106.072 53.9588C105.832 54.0549 105.581 54.103 105.32 54.103C104.894 54.103 104.544 54.0206 104.269 53.8558C104.002 53.6841 103.802 53.4507 103.672 53.1554C103.548 52.8601 103.487 52.5134 103.487 52.1151V48.9015C103.487 48.8466 103.504 48.7985 103.538 48.7573C103.579 48.7161 103.631 48.6955 103.693 48.6955C103.754 48.6955 103.802 48.7161 103.837 48.7573C103.878 48.7985 103.899 48.8466 103.899 48.9015V52.1151C103.899 52.6026 104.005 52.9906 104.218 53.279C104.438 53.5674 104.805 53.7116 105.32 53.7116C105.629 53.7116 105.921 53.6361 106.195 53.485C106.477 53.3271 106.707 53.1245 106.886 52.8773C107.064 52.6301 107.153 52.376 107.153 52.1151V48.9015C107.153 48.8466 107.171 48.7985 107.205 48.7573C107.246 48.7161 107.298 48.6955 107.359 48.6955Z" fill="black"/>
</svg>
